<?xml version="1.0" encoding="UTF-8"?>
<svg width="512pt" height="512pt" version="1.1" viewBox="0 0 512 512" xmlns="http://www.w3.org/2000/svg">
 <path d="m311.6 99.051v313.9l-142.15-86.199h-74.75c-9.25 0-16.801-7.5-16.801-16.801v-107.9c0-9.25 7.5-16.801 16.801-16.801h74.801z" fill="#31455a"/>
 <path d="m304.1 99.051v31.25 75.051 90.75 78.398 25.801c0 4.0508-0.19922 8.1016 0 12.148v0.55078c3.75-2.1484 7.5-4.3008 11.301-6.5-14.051-8.5-28.102-17.051-42.148-25.551-24.352-14.75-48.699-29.551-73.051-44.301-7.6992-4.6484-15.398-9.3516-23.102-14-1.25-0.75-2.5-1.6016-3.8008-2.3008-2.8516-1.5508-6.6484-1.0508-9.75-1.0508-22.898 0-45.801 0.35156-68.648 0h-0.14844c0.050782 0-2.1992-0.10156-1.0508 0 1.1016 0.10156-1-0.19922-1-0.19922-0.64844-0.14844-1.25-0.35156-1.8984-0.60156 1.5508 0.60156-0.35156-0.19922-0.55078-0.35156-0.39844-0.19922-0.75-0.44922-1.1016-0.69922-0.69922-0.5-0.69922-0.5 0 0-0.35156-0.30078-0.64844-0.55078-0.94922-0.89844-0.14844-0.14844-1.5-1.75-0.5-0.44922-0.25-0.35156-0.5-0.69922-0.69922-1.0508-0.35156-0.55078-0.64844-1.1016-0.94922-1.6992 0.69922 1.5-0.10156-0.39844-0.14844-0.64844-0.10156-0.44922-0.19922-0.85156-0.30078-1.3008-0.5-1.8984-0.10156 1.3008-0.050781-0.69922v-0.75c-0.050782-2.3008 0-4.5508 0-6.8516v-36.102c0-21.602-0.35156-43.25 0-64.801 0-0.5 0.050781-0.94922 0.050781-1.3984-0.10156 1.3984-0.050781 0.35156 0 0 0.14844-0.64844 0.35156-1.3008 0.5-1.8984 0.5-1.8516-0.69922 1 0.25-0.60156 0.30078-0.44922 0.55078-0.94922 0.80078-1.3984 0.19922-0.35156 1.1484-1.3516 0.19922-0.30078 0.60156-0.64844 1.1992-1.25 1.8008-1.8008-1.0508 0.94922-0.050781 0.050781 0.30078-0.19922 0.44922-0.25 0.94922-0.55078 1.3984-0.80078 1.6016-1-1.25 0.19922 0.60156-0.25 0.64844-0.14844 1.3008-0.35156 1.8984-0.5 0.35156-0.10156 1.3984-0.10156 0 0 0.85156-0.050781 0.55078-0.050781 1.3984-0.050781h0.19922c3.3008-0.050782 6.6016 0 9.8984 0h41.602 17.352c3.1016 0 6.6992 0.44922 9.5-1.0508 4.6016-2.4492 9-5.4492 13.449-8.1484 22.801-13.852 45.648-27.648 68.449-41.5 19.051-11.551 38.051-23.102 57.102-34.648 1.0508-0.64844 2.1016-1.25 3.1016-1.8984 3.4492-2.1016 4.75-6.75 2.6992-10.25-2-3.4492-6.8008-4.8008-10.25-2.6992-16.051 9.75-32.102 19.449-48.148 29.199-25.551 15.5-51.051 31-76.602 46.449-5.8008 3.5-11.602 7.0508-17.398 10.551 1.25-0.35156 2.5-0.69922 3.8008-1h-63.199-10.801c-8.6484 0.050781-16.301 3.8984-21.148 11.102-4.9492 7.3008-3.8984 16.699-3.8984 25.102v76.398c0 6.5-0.10156 13 0 19.551 0.19922 10.898 7.5 20.898 18.25 23.551 3.6016 0.89844 7.25 0.75 10.898 0.75h68.102 1.8516c-1.25-0.35156-2.5-0.69922-3.8008-1 16.051 9.75 32.102 19.449 48.148 29.199 25.551 15.5 51.051 31 76.602 46.449 5.8008 3.5 11.602 7.0508 17.398 10.551 4.8984 2.9492 11.301-0.85156 11.301-6.5v-31.25-75.051-90.75-78.398c0-12.648 0.30078-25.301 0-37.898v-0.55078c0-3.8984-3.4492-7.6992-7.5-7.5-4.1602-0.003906-7.6094 3.0977-7.6094 7.2969z" fill="#31455a"/>
 <path d="m341.15 218.2c1.6016 0.80078 3.1484 1.6484 4.6484 2.5508 0.80078 0.5 1.6016 1 2.3516 1.5508 0.5 0.35156 2.9492 2.1484 1.3008 0.89844-1.8008-1.3516 0.85156 0.75 1.1484 1.0508 0.60156 0.55078 1.1992 1.1016 1.8008 1.6484 1.3516 1.3008 2.6484 2.6484 3.8516 4.1016 0.30078 0.35156 0.60156 0.69922 0.89844 1.1016 1.3008 1.5508-0.60156-0.69922-0.64844-0.85156 0.35156 0.80078 1.1484 1.5508 1.6016 2.3008 1.0508 1.5508 2 3.1992 2.8984 4.8516 0.39844 0.75 0.75 1.4492 1.1016 2.1992 1.25 2.6992-0.75-2.0508 0-0.050781 0.75 1.8984 1.3984 3.8008 1.8984 5.8008 0.5 1.75 0.85156 3.5508 1.1484 5.3516 0.39844 2.1992-0.30078-2.8516 0-0.050781 0.10156 1.1016 0.19922 2.25 0.25 3.3516 0.10156 1.8984 0.050781 3.8008-0.050782 5.6484-0.050781 0.85156-0.14844 1.75-0.19922 2.6016-0.19922 2.1016 0.10156-0.94922 0.14844-1.1016-0.19922 0.55078-0.19922 1.25-0.30078 1.8008-0.35156 1.8008-0.75 3.6016-1.3008 5.3516-0.25 0.94922-0.55078 1.8516-0.89844 2.75-0.10156 0.35156-0.25 0.69922-0.35156 1-0.69922 1.8516-0.10156 0.19922 0.30078-0.64844-1.6484 3.3008-3.25 6.5508-5.3984 9.6484-0.25 0.39844-0.55078 0.75-0.85156 1.1484-0.89844 1.25 1.8516-2.1992 0.44922-0.55078-0.69922 0.80078-1.3516 1.6484-2.1016 2.3984-1.3516 1.5-2.8008 2.8984-4.3008 4.1992-0.39844 0.35156-3.1484 2.6016-1.5 1.25 1.6992-1.3008-1.1016 0.75-1.6016 1.1016-1.8008 1.1992-3.6484 2.25-5.5508 3.25-5.8008 3-8 11.648-4.5 17.102 3.8008 5.9492 10.898 7.6992 17.102 4.5 16.75-8.6484 29.602-24.898 34-43.301 4.3984-18.5 0.94922-39.102-10.449-54.5-6.4492-8.75-14.5-16.102-24.301-20.949-5.8516-2.8984-13.801-1.75-17.102 4.5-2.9414 5.5469-1.7422 13.898 4.5078 16.996z" fill="#31455a"/>
 <path d="m364 171.5c3.3008 1.6484 6.5508 3.3984 9.6484 5.3516 1.5 0.94922 3 1.8984 4.4492 2.9492 0.80078 0.55078 1.5508 1.1016 2.3008 1.6484 0.39844 0.30078 0.75 0.60156 1.1484 0.85156-0.35156-0.25-2.1484-1.6992-0.85156-0.64844 5.75 4.6016 11 9.6484 15.75 15.301 0.60156 0.75 1.1992 1.4492 1.8008 2.1992 0.55078 0.64844 1.0508 1.8008-0.64844-0.85156 0.25 0.39844 0.60156 0.75 0.85156 1.1484 1.1484 1.5 2.1992 3.1016 3.25 4.6484 2.0508 3.0508 3.8984 6.25 5.6016 9.5 0.85156 1.6016 1.6016 3.1992 2.3516 4.8008 0.25 0.5 1.3516 3.1016 0.55078 1.1484-0.75-1.8516-0.14844-0.30078 0.050781 0.14844 0.25 0.55078 0.44922 1.1016 0.64844 1.6484 1.3516 3.5 2.5 7.0508 3.5 10.699 1 3.6484 1.75 7.3984 2.3516 11.148 0.10156 0.5 0.14844 1 0.19922 1.4492-0.050781-0.19922-0.39844-3.25-0.14844-1.1016 0.10156 0.85156 0.19922 1.75 0.30078 2.6016 0.19922 2 0.30078 4 0.39844 6 0.14844 3.9492 0.10156 7.8516-0.19922 11.801-0.14844 1.8984-0.35156 3.75-0.55078 5.6016-0.19922 1.6484 0.39844-2.75 0.14844-1.1016-0.10156 0.5-0.14844 1-0.19922 1.4492-0.14844 1-0.35156 1.9492-0.5 2.8984-0.69922 3.75-1.6016 7.3984-2.6992 11.051-0.55078 1.75-1.1016 3.4492-1.6992 5.1992-0.35156 0.89844-0.64844 1.8008-1 2.6992-0.14844 0.35156-0.25 0.64844-0.39844 1-0.94922 2.4492 1.1992-2.75 0.14844-0.30078-3 6.8008-6.6016 13.25-10.949 19.301-0.55078 0.75-1.1016 1.5508-1.6992 2.3008-1.1992 1.6484 0.55078-0.69922 0.64844-0.85156-0.39844 0.44922-0.75 0.94922-1.1016 1.3984-1.25 1.5508-2.6016 3.1016-3.9492 4.6016-2.8008 3.0508-5.75 5.9492-8.8984 8.6992-0.80078 0.69922-1.6016 1.3984-2.4492 2.0508-0.35156 0.30078-0.75 0.60156-1.1016 0.89844-1.6992 1.3516 1.8008-1.3516 0.55078-0.44922-1.6484 1.1992-3.25 2.3984-4.9492 3.5-3.5508 2.3984-7.3008 4.5508-11.102 6.5-5.8516 3-8 11.648-4.5 17.102 3.8516 5.9492 10.852 7.6992 17.102 4.5 30.148-15.449 52.949-44.199 61-77.148 8.1484-33.551 1.4492-70.602-19.301-98.398-11.449-15.352-25.949-28.102-43.199-36.602-5.8516-2.8984-13.801-1.75-17.102 4.5-3.0039 5.7109-1.8047 14.059 4.4453 17.16z" fill="#31455a"/>
</svg>
