<?xml version="1.0" encoding="UTF-8"?>
<svg width="512pt" height="512pt" version="1.1" viewBox="0 0 512 512" xmlns="http://www.w3.org/2000/svg">
 <path d="m297.85 265.55-88.652 62.5-139.25 98.051c-7.75 5.4492-18.449-0.10156-18.449-9.5508v-321.1c0-9.5 10.699-15.051 18.449-9.5508l227.9 160.55c6.6016 4.6523 6.6016 14.449 0.003906 19.102z" fill="#31455a"/>
 <path d="m294.05 259.1c-10.898 7.6484-21.75 15.301-32.648 23-16.148 11.352-32.25 22.699-48.398 34.102-5.25 3.6992-10.5 7.3984-15.801 11.102-14.148 10-28.352 19.949-42.5 29.949-17.648 12.449-35.352 24.898-53 37.352-11.25 7.8984-22.449 15.801-33.699 23.75-0.64844 0.44922-1.25 0.89844-1.8984 1.3516-0.35156 0.25-0.75 0.44922-1.1016 0.69922-0.35156 0.25-1.25 0.39844 0.10156 0-0.35156 0.10156-0.80078 0.19922-1.1484 0.35156-0.44922 0.14844-1.3008 0 0.25 0-0.35156 0-0.80078 0-1.1484 0.050782-0.44922 0.050781-1.3984-0.25 0.25 0.10156-0.44922-0.10156-0.94922-0.19922-1.3984-0.35156-0.25-0.050782-1.3984-0.55078-0.44922-0.10156 0.94922 0.39844-0.14844-0.14844-0.39844-0.25-1.5508-0.89844 0.55078 0.64844-0.75-0.55078-0.19922-0.14844-1.0508-1.0508-0.39844-0.30078 0.64844 0.75-0.10156-0.19922-0.25-0.39844-0.14844-0.19922-0.75-1.3008-0.30078-0.39844 0.5 0.94922-0.14844-0.60156-0.25-0.80078-0.44922-1.1016-0.14844-0.30078-0.10156 0.14844-0.050781-0.44922-0.050781-0.85156-0.050781-1.3008v-0.14844-0.75-3-30.648-52.551-64.449-65.602-56.75-37.648-8.4492-1.4492c0-0.30078 0.25-1.5508 0-0.60156-0.25 1 0.10156-0.30078 0.19922-0.5 0.10156-0.25 0.60156-1.3984 0.14844-0.5-0.44922 0.89844 0.14844-0.19922 0.30078-0.39844 0.14844-0.19922 0.89844-1.1484 0.25-0.39844s0.19922-0.14844 0.39844-0.30078c0.19922-0.14844 1.1484-0.89844 0.35156-0.35156-0.89844 0.64844 0.5-0.25 0.64844-0.35156 1-0.69922 0.10156-0.10156-0.25 0.050782 0.44922-0.14844 0.89844-0.30078 1.3516-0.39844 0.30078-0.10156 1.4492-0.10156 0.39844-0.10156-1.1016 0 0.19922 0.050781 0.44922 0.050781s1.5 0.14844 0.44922 0c-1.0508-0.19922 0.19922 0.10156 0.44922 0.14844 0.25 0.050782 1.3984 0.5 0.55078 0.14844-0.94922-0.39844 0.60156 0.39844 0.80078 0.5 8.1992 5.1016 15.898 11.199 23.75 16.75 16.898 11.898 33.801 23.801 50.648 35.699 16.148 11.398 32.301 22.75 48.449 34.148 6 4.25 12 8.4492 18 12.699 13.449 9.4492 26.898 18.949 40.301 28.398 14.699 10.352 29.398 20.699 44.102 31.051 1 0.69922 2.0508 1.3984 3.0508 2.1484-1.1992-0.94922 0.89844 1 0.30078 0.35156-0.69922-0.80078 1.1016 2 0.64844 1-0.55078-1.1484 0.64844 2.3516 0.35156 1-0.19922-0.85156-0.050782 1.3008 0 1.6992 0.050781 0.94922 0.44922-1.0508 0-0.19922-0.14844 0.30078-0.30078 0.80078-0.35156 1.1484-0.14844 0.89844 0.64844-0.75 0-0.10156-0.25 0.25-0.44922 0.75-0.64844 1.0508-0.60156 0.89844 0.75-0.85156 0-0.050781-0.007813 0.10156-1.1094 1-0.007813 0.15234-3.25 2.3984-4.8984 6.5-2.6992 10.25 1.8516 3.1992 7 5.1484 10.25 2.6992 3.9492-2.9492 7.1016-6.6992 8.1484-11.648 1-4.75 0.39844-9.75-2.0508-14-1.8008-3.1992-4.5508-5.3516-7.5-7.3984-5.3008-3.6992-10.551-7.4492-15.852-11.148-17.398-12.25-34.852-24.551-52.25-36.801-7.1484-5.0508-14.301-10.051-21.398-15.102-11.75-8.3008-23.5-16.551-35.25-24.852-18.051-12.699-36.102-25.398-54.102-38.102-13.801-9.6992-27.602-19.449-41.398-29.148-2.5-1.75-4.9492-3.8008-7.6484-5.25-8.6992-4.6484-19.25-1.8984-24.949 6-2.3516 3.3008-3.3516 7.25-3.3984 11.25-0.050781 7.3516 0 14.648 0 22v47.75 63.102 67.449 61 43.75 12c0 3.1484-0.14844 6.3516 0.85156 9.3984 4.1484 12.551 19.102 17.199 29.75 9.6992 3.6484-2.6016 7.3516-5.1992 11-7.75 15.449-10.852 30.852-21.75 46.301-32.602 17.648-12.398 35.25-24.852 52.898-37.25 9.3008-6.5508 18.602-13.102 27.898-19.648 9.6992-6.8516 19.398-13.699 29.148-20.5 16.75-11.801 33.551-23.648 50.301-35.449 3.1484-2.1992 6.3008-4.4492 9.4492-6.6484 3.3008-2.3516 4.8516-6.5508 2.6992-10.25-1.8516-3.4023-6.8516-5.1523-10.199-2.8008z" fill="#31455a"/>
 <path d="m455.5 265.55-227.85 160.55c-7.75 5.4492-18.449-0.10156-18.449-9.5508v-88.5l88.648-62.449c6.6016-4.6484 6.6016-14.449 0-19.148l-88.648-62.504v-88.5c0-9.5 10.699-15.051 18.449-9.5508l227.85 160.55c6.6484 4.6523 6.6484 14.449 0 19.102z" fill="#31455a"/>
 <path d="m451.7 259.1c-3.6484 2.5508-7.3008 5.1484-10.949 7.6992-9.5508 6.6992-19.102 13.449-28.648 20.148-13.352 9.3984-26.75 18.852-40.102 28.25-14.949 10.551-29.898 21.051-44.852 31.602-14.449 10.199-28.898 20.352-43.352 30.551-11.801 8.3516-23.648 16.648-35.449 25-7.0508 5-14.148 9.9492-21.199 14.949-1.1016 0.75-2.1484 1.5508-3.3008 2.3008-0.55078 0.35156-1.1016 0.64844-1.6992 1 1.0508-0.60156 0.10156-0.14844-0.5 0.10156-0.44922 0.14844-1.3008 0 0.25 0-0.39844 0-0.80078 0-1.1484 0.050781-1.25 0.10156 1.1484 0.39844-0.60156-0.050781-0.30078-0.10156-1.8516-0.64844-1-0.25 0.89844 0.39844-0.85156-0.60156-1.1016-0.69922 0.14844 0.050782 0.89844 0.89844 0.39844 0.30078-0.30078-0.35156-0.69922-0.75-1.0508-1 0.14844 0.10156 0.60156 1.1016 0.30078 0.39844-0.10156-0.25-0.30078-0.55078-0.44922-0.75-0.69922-0.89844-0.19922-0.19922 0 0.19922-0.10156-0.30078-0.19922-0.60156-0.30078-0.85156-0.10156-0.30078-0.10156-0.60156-0.25-0.89844 0.44922 1.1016 0 0.75 0 0.10156v-0.69922-0.94922c-0.050781-13.602 0-27.199 0-40.801v-44.199-2.5508c-1.25 2.1484-2.5 4.3008-3.6992 6.5 11.148-7.8516 22.301-15.699 33.398-23.551 16.25-11.449 32.5-22.898 48.75-34.352 5.6484-4 11.699-7.5 14.148-14.5 2.9492-8.3984-0.69922-17.148-7.6992-22.199-1.0508-0.75-2.1484-1.5-3.1992-2.25-15.102-10.648-30.25-21.301-45.352-31.949-13.145-9.2539-26.043-18.855-39.395-27.754-0.25-0.14844-0.44922-0.35156-0.69922-0.5 1.25 2.1484 2.5 4.3008 3.6992 6.5v-34.852-48.648-4.6484-0.35156-0.35156c0-0.30078 0-0.64844 0.050781-0.94922-0.10156 1.0508-0.10156 0.60156 0.14844-0.14844 0.10156-0.30078 0.19922-0.60156 0.30078-0.85156-0.14844 0.39844-0.69922 1.1016 0 0.19922 0.14844-0.19922 0.35156-0.5 0.44922-0.75 0.30078-0.69922-0.14844 0.25-0.30078 0.39844 0.19922-0.14844 1.6992-1.5 0.94922-0.94922-1.0508 0.75 2-1 0.80078-0.44922-0.89844 0.39844 0.94922-0.25 1.3008-0.35156 0.64844-0.19922 1 0.14844-0.30078 0.050781 0.30078 0.050782 0.60156-0.050781 0.85156 0 0.30078 0 0.60156 0 0.89844 0.050782-0.35156 0-1.5-0.39844-0.25 0 0.25 0.10156 0.60156 0.25 0.85156 0.25 0.64844 0.050781-1-0.69922 0.19922 0.10156 0.39844 0.30078 0.85156 0.5 1.25 0.80078 0.5 0.30078 0.94922 0.64844 1.3984 1 6.3008 4.4492 12.602 8.8516 18.898 13.301 11.551 8.1484 23.148 16.301 34.699 24.449 14.648 10.301 29.301 20.648 43.949 30.949 15.398 10.852 30.75 21.699 46.148 32.5 13.75 9.6992 27.551 19.398 41.301 29.102 9.9492 7.0508 19.949 14.051 29.898 21.102 3.8008 2.6484 7.8008 5.1992 11.449 8.0508-1.4492-1.1484 1 1.1016 0.25 0.30078-0.44922-0.55078 0.60156 1 0.80078 1.3008-0.75-1.3516-0.10156 0.39844 0.14844 0.80078 0.35156 0.5 0-0.14844 0-0.5 0.050782 0.39844 0.050782 0.80078 0.050782 1.1992 0 0.89844-0.39844 1.5 0 0.39844-0.10156 0.25-0.75 2.1992-0.35156 1.3984 0.35156-0.80078-0.64844 1-0.85156 1.25 1.2617-1.5508-1.2852 0.99609 0.0625-0.050782-3.25 2.3984-4.8984 6.5-2.6992 10.25 1.8516 3.1992 7 5.1484 10.25 2.6992 4.8516-3.6016 7.8516-8.1992 8.5508-14.25 0.5-4.5-0.75-9.3008-3.5-12.949-1.6484-2.25-3.6992-3.9492-5.9492-5.5508-3-2.1016-6-4.1992-8.9492-6.3008-13.352-9.3984-26.699-18.801-40-28.199-19.051-13.398-38.102-26.852-57.148-40.25-19.602-13.852-39.25-27.648-58.852-41.5-15.102-10.602-30.148-21.25-45.25-31.852-4.3008-3.0508-8.6016-6.0508-12.898-9.1016-3.3516-2.3516-6.5-4.8516-10.75-5.5-9.8984-1.6016-20.602 4.5-22.398 14.949-0.44922 2.6016-0.39844 5.0508-0.39844 7.6484v27.699 35.75c0 6.9492-0.25 14 0 20.949 0.14844 3.6016 2.1992 5.8008 4.8984 7.75 2.25 1.5508 4.4492 3.1484 6.6992 4.6992 8.25 5.8008 16.5 11.602 24.699 17.398 17.199 12.102 34.398 24.25 51.648 36.352 1.4492 1 2.8984 1.9492 4.3008 3 0.39844 0.30078-1.0508-0.35156 0.10156 0.19922l0.44922 0.44922c-0.44922-0.60156-0.5-0.69922-0.19922-0.30078 0.30078 0.44922 0.55078 0.89844 0.80078 1.3516-0.14844-0.30078-0.35156-1.3984-0.050781-0.10156 0.10156 0.39844 0.35156 2.1992 0.19922 0.35156 0.050782 0.80078 0.10156 1.6016 0 2.3984 0.14844-1.75 0.050782-0.30078-0.14844 0.10156-0.19922 0.35156-0.80078 1.5508 0 0.19922-0.30078 0.55078-1.6016 2.0508-0.60156 1.0508-0.35156 0.35156-1.3984 1.3008-0.44922 0.55078-4 3.1484-8.3516 5.8984-12.5 8.8008-18.648 13.148-37.25 26.25-55.898 39.398-6.1992 4.3516-12.352 8.6992-18.551 13.051-2.8008 2-5.25 3.8516-5.4492 7.8008-0.10156 2.0508 0 4.1484 0 6.1992v65.449c0 5.5508-0.14844 11.148 0 16.75 0.25 10.449 8.5 19.051 19.051 19.199 4 0.050782 7.8984-1.25 11.148-3.5508 8.1484-5.6992 16.25-11.449 24.398-17.199 16.5-11.648 33.051-23.25 49.551-34.898 19.949-14.051 39.852-28.102 59.801-42.148 18.199-12.852 36.449-25.699 54.648-38.5 11.398-8.0508 22.801-16.051 34.199-24.102 1.6016-1.1016 3.1992-2.25 4.75-3.3516 3.3008-2.3516 4.8516-6.5508 2.6992-10.25-1.8516-3.1914-6.8516-4.9414-10.203-2.5898z" fill="#31455a"/>
</svg>
