<?xml version="1.0" encoding="UTF-8"?>
<svg width="512pt" height="512pt" version="1.1" viewBox="0 0 512 512" xmlns="http://www.w3.org/2000/svg">
 <path d="m198.95 416.5v-321c0-9.5 10.699-15 18.449-9.5508l227.8 160.5c6.6016 4.6484 6.6016 14.449 0 19.102l-227.8 160.5c-7.75 5.4492-18.449-0.10156-18.449-9.5508z" fill="#31455a"/>
 <path d="m206.45 416.5v-16.801-43.551-60.051-66.25-62-48-23.5-0.69922-0.14844c0-0.44922 0-0.85156 0.050781-1.3008-0.10156 1.0508-0.10156 0.60156 0.14844-0.14844 0.10156-0.25 0.60156-1.3984 0.14844-0.5-0.44922 0.89844 0.14844-0.19922 0.30078-0.39844 0.14844-0.19922 0.89844-1.1484 0.25-0.39844-0.64844 0.75 0.19922-0.14844 0.39844-0.30078 1.3516-1.1992-0.80078 0.35156 0.75-0.55078 0.19922-0.14844 1.3008-0.69922 0.39844-0.25-1 0.44922 0.5-0.14844 0.69922-0.19922 0.35156-0.10156 0.75-0.14844 1.1016-0.25-1.6484 0.35156-0.69922 0.050781-0.25 0.10156 0.35156 0.050781 0.80078 0.050781 1.1484 0.050781-1.5 0-0.69922-0.14844-0.25 0 0.35156 0.14844 0.80078 0.25 1.1484 0.35156-1.3516-0.39844-0.44922-0.19922-0.10156 0 0.35156 0.25 0.75 0.44922 1.1016 0.69922 1.5 1 2.9492 2.1016 4.4492 3.1484 9.75 6.8984 19.551 13.75 29.301 20.648 15.699 11.051 31.352 22.102 47.051 33.148 18.102 12.75 36.148 25.449 54.25 38.199 16.5 11.648 33 23.25 49.551 34.898 11.449 8.0508 22.852 16.102 34.301 24.148 2.6484 1.8516 5.25 3.6992 7.8984 5.5508 0.14844 0.10156 1.3516 1.0508 0.80078 0.55078-0.64844-0.55078 0.30078 0.35156 0.44922 0.5 0.80078 0.75-0.55078-0.94922 0-0.050781 0.19922 0.35156 0.39844 0.80078 0.64844 1.0508 0.64844 0.64844-0.14844-1 0-0.10156 0.050782 0.35156 0.14844 0.85156 0.35156 1.1484 0.44922 0.80078 0.050781-1.1484 0-0.19922-0.050781 0.39844 0.050781 0.80078 0.050781 1.1992 0 0.94922-0.25 1.0508 0.050781 0.10156-0.10156 0.35156-0.19922 0.80078-0.30078 1.1484-0.30078 1.3008-0.10156 0.19922 0.050781-0.10156-0.25 0.44922-1.6016 2.0508-0.60156 1.0508-0.39844 0.39844-1.3008 1.25-0.5 0.60156-5.3984 4.1992-11.25 7.9492-16.898 11.898-13.352 9.3984-26.75 18.852-40.102 28.25-17.352 12.199-34.648 24.398-52 36.602-17.699 12.5-35.449 24.949-53.148 37.449-14.352 10.102-28.699 20.199-43.051 30.301-7.25 5.1016-14.5 10.25-21.75 15.352-0.64844 0.44922-1.6484 0.89844-2.1992 1.3984-0.69922 0.60156 0.94922-0.14844 0.10156-0.050781-0.35156 0.050781-0.85156 0.14844-1.1484 0.30078-0.85156 0.39844 1.1484 0.10156 0.25 0-0.35156-0.050781-0.85156-0.050781-1.1484 0-0.94922 0.19922 1.1992 0.39844 0.30078 0.050781-0.35156-0.10156-0.75-0.19922-1.1016-0.25-0.25-0.050781-1.3984-0.55078-0.44922-0.10156 0.94922 0.39844-0.14844-0.14844-0.39844-0.25-1.5508-0.89844 0.55078 0.64844-0.75-0.55078-0.19922-0.14844-1.0508-1.0508-0.39844-0.30078 0.64844 0.75-0.10156-0.19922-0.25-0.39844-0.14844-0.19922-0.75-1.3008-0.30078-0.39844 0.44922 0.89844-0.050781-0.25-0.14844-0.5-0.10156-0.25-0.44922-1.5-0.19922-0.5 0.24609 1.1523-0.054687-0.79688-0.054687-0.84766-0.10156-3.8984-3.3984-7.6992-7.5-7.5-4 0.19922-7.6016 3.3008-7.5 7.5 0.25 9.1484 6.6484 17.398 15.898 18.852 5 0.80078 9.8984-0.14844 14.102-3.0508 2.1016-1.4492 4.1992-2.9492 6.3008-4.4492 10.898-7.6992 21.852-15.398 32.75-23.102 16.551-11.648 33.051-23.301 49.602-34.949 18.301-12.898 36.602-25.801 54.898-38.648 16.25-11.449 32.449-22.852 48.699-34.301 10.148-7.1484 20.352-14.352 30.5-21.5 1.6016-1.1016 3.1992-2.1992 4.75-3.3516 6.8984-4.9492 10.551-13.551 7.8008-21.898-1.5-4.4492-4.3516-7.75-8.1016-10.449-6.6992-4.8008-13.5-9.5-20.199-14.25-14.352-10.102-28.648-20.199-43-30.301-18-12.699-36-25.352-54-38.051-17.699-12.449-35.352-24.898-53.051-37.352-13.551-9.5508-27.102-19.102-40.602-28.602-5.5-3.8984-10.949-7.8984-16.551-11.648-7.3984-4.9492-17.301-3.8008-23.801 2.1484-3.9492 3.6016-5.8516 8.8516-5.9492 14.102-0.050782 2.1484 0 4.3516 0 6.5v35.352 56.148 66.5 65.801 54.148 31.949 4.3008c0 3.8984 3.4492 7.6992 7.5 7.5 4.0039-0.097657 7.4531-3.1992 7.4531-7.3984z" fill="#31455a"/>
 <path d="m130.1 428.8h-67.152c-0.60156 0-1.1016-0.5-1.1016-1.1016l0.003906-343.4c0-0.60156 0.5-1.1016 1.1016-1.1016h67.148c0.60156 0 1.1016 0.5 1.1016 1.1016v343.4c-0.003906 0.60156-0.45312 1.1016-1.1016 1.1016z" fill="#31455a"/>
 <path d="m130.1 421.3h-58.801-6.0508-1.6992c-0.94922 0-0.94922-0.35156 0.80078 0.10156 1.1016 0.64844 2.1992 1.3008 3.3008 1.9492-0.14844-0.14844-0.25-0.25-0.39844-0.39844 0.64844 1.1016 1.3008 2.1992 1.9492 3.3008 0.25 0.94922 0.10156 2 0.10156 0.85156v-1.8008-6.75-25.051-36.898-45-49.301-50.051-46.398-39.25-28.25c0-4.5 0.10156-9 0-13.449 0-0.89844 0.35156-0.85156-0.10156 0.85156-0.64844 1.1016-1.3008 2.1992-1.9492 3.3008l0.39844-0.39844c-1.1016 0.64844-2.1992 1.3008-3.3008 1.9492-1.6992 0.44922-1.8008 0.10156-0.94922 0.10156h1.3516 4.8516 16.102 36.051 6.0508 1.6992c0.94922 0 0.94922 0.35156-0.80078-0.10156-1.1016-0.64844-2.1992-1.3008-3.3008-1.9492l0.39844 0.39844c-0.64844-1.1016-1.3008-2.1992-1.9492-3.3008-0.25-0.94922-0.10156-2-0.10156-0.85156v1.8008 6.75 25.051 36.898 45 49.301 50.051 46.398 39.25 28.25c0 4.5-0.10156 9 0 13.449 0 0.89844-0.35156 0.85156 0.10156-0.85156 0.64844-1.1016 1.3008-2.1992 1.9492-3.3008-0.14844 0.14844-0.25 0.25-0.39844 0.39844 1.1016-0.64844 2.1992-1.3008 3.3008-1.9492-0.19922 0.050781-0.35156 0.10156-0.55078 0.14844-3.8984 1.0508-6.3008 5.3516-5.25 9.25 1.1016 3.9492 5.3008 6.3008 9.25 5.25 5.6016-1.5 6.6016-6.1992 6.6016-10.949v-9.0508-34.102-49.949-58.551-60.5-55.648-44.102-25.352c0-1.1992 0.050782-2.3984 0-3.6016-0.25-4.8984-3.8984-8.3008-8.6992-8.6016-0.60156-0.050781-1.1992 0-1.8008 0h-8.75-52.699c-2 0-4.0508-0.14844-6.0508 0.35156-4.0508 1-6.25 4.8516-6.3516 8.75-0.050781 2 0 4 0 5.9492v29.199 46.5 57.25 60.648 57.449 47.449 30.699c0 2.25-0.050781 4.5508 0 6.8008v0.89844c0.35156 4.9492 3.8516 8.3008 8.75 8.6016 0.60156 0.050782 1.25 0 1.8984 0h51.301 13.852c3.8984 0 7.6992-3.4492 7.5-7.5-0.25781-3.9414-3.3555-7.3906-7.6055-7.3906z" fill="#31455a"/>
</svg>
