<?xml version="1.0" encoding="UTF-8"?>
<svg width="512pt" height="512pt" version="1.1" viewBox="0 0 512 512" xmlns="http://www.w3.org/2000/svg">
 <path d="m299.7 99.051v313.9l-142.15-86.199h-74.801c-9.25 0-16.801-7.5-16.801-16.801v-107.9c0-9.25 7.5-16.801 16.801-16.801h74.801z" fill="#31455a"/>
 <path d="m292.2 99.051v31.25 75.051 90.75 78.398 25.801c0 4.0508-0.19922 8.1016 0 12.148v0.55078c3.75-2.1484 7.5-4.3008 11.301-6.5-14.051-8.5-28.102-17.051-42.148-25.551-24.352-14.75-48.699-29.551-73.051-44.301-7.6992-4.6484-15.398-9.3516-23.102-14-1.25-0.75-2.5-1.6016-3.8008-2.3008-2.8516-1.5508-6.6484-1.0508-9.75-1.0508-22.898 0-45.801 0.35156-68.648 0h-0.14844c0.050782 0-2.1992-0.10156-1.0508 0 1.1016 0.10156-1-0.19922-1-0.19922-0.64844-0.14844-1.25-0.35156-1.8984-0.60156 1.5508 0.60156-0.35156-0.19922-0.55078-0.35156-0.39844-0.19922-0.75-0.44922-1.1016-0.69922-0.69922-0.5-0.69922-0.5 0 0-0.35156-0.30078-0.64844-0.55078-0.94922-0.89844-0.14844-0.14844-1.5-1.75-0.5-0.44922-0.25-0.35156-0.5-0.69922-0.69922-1.0508-0.35156-0.55078-0.64844-1.1016-0.94922-1.6992 0.69922 1.5-0.10156-0.39844-0.14844-0.64844-0.10156-0.44922-0.19922-0.85156-0.30078-1.3008-0.5-1.8984-0.10156 1.3008-0.050781-0.69922v-0.75c-0.050782-2.3008 0-4.5508 0-6.8516v-36.102c0-21.602-0.35156-43.25 0-64.801 0-0.5 0.050781-0.94922 0.050781-1.3984-0.10156 1.3984-0.050781 0.35156 0 0 0.14844-0.64844 0.35156-1.3008 0.5-1.8984 0.5-1.8516-0.69922 1 0.25-0.60156 0.30078-0.44922 0.55078-0.94922 0.80078-1.3984 0.19922-0.35156 1.1484-1.3516 0.19922-0.30078 0.60156-0.64844 1.1992-1.25 1.8008-1.8008-1.0508 0.94922-0.050781 0.050781 0.30078-0.19922 0.44922-0.25 0.94922-0.55078 1.3984-0.80078 1.6016-1-1.25 0.19922 0.60156-0.25 0.64844-0.14844 1.3008-0.35156 1.8984-0.5 0.35156-0.10156 1.3984-0.10156 0 0 0.85156-0.050781 0.55078-0.050781 1.3984-0.050781h0.19922c3.3008-0.050782 6.6016 0 9.8984 0h41.602 17.352c3.1016 0 6.6992 0.44922 9.5-1.0508 4.6016-2.4492 9-5.4492 13.449-8.1484 22.801-13.852 45.648-27.648 68.449-41.5 19.051-11.551 38.051-23.102 57.102-34.648 1.0508-0.64844 2.1016-1.25 3.1016-1.8984 3.4492-2.1016 4.75-6.75 2.6992-10.25-2-3.4492-6.8008-4.8008-10.25-2.6992-16.051 9.75-32.102 19.449-48.148 29.199-25.551 15.5-51.051 31-76.602 46.449-5.8008 3.5-11.602 7.0508-17.398 10.551 1.25-0.35156 2.5-0.69922 3.8008-1h-63.199-10.801c-8.6484 0.050781-16.301 3.8984-21.148 11.102-4.9492 7.3008-3.8984 16.699-3.8984 25.102v76.398c0 6.5-0.10156 13 0 19.551 0.19922 10.898 7.5 20.898 18.25 23.551 3.6016 0.89844 7.25 0.75 10.898 0.75h68.102 1.8516c-1.25-0.35156-2.5-0.69922-3.8008-1 16.051 9.75 32.102 19.449 48.148 29.199 25.551 15.5 51.051 31 76.602 46.449 5.8008 3.5 11.602 7.0508 17.398 10.551 4.8984 2.9492 11.301-0.85156 11.301-6.5v-31.25-75.051-90.75-78.398c0-12.648 0.30078-25.301 0-37.898v-0.55078c0-3.8984-3.4492-7.6992-7.5-7.5-4.207-0.003906-7.6094 3.0977-7.6094 7.2969z" fill="#31455a"/>
 <path d="m433.2 198.9c-10.852 10.852-21.75 21.75-32.602 32.602-17.301 17.301-34.648 34.648-51.949 51.949-3.9492 3.9492-7.9492 7.9492-11.898 11.898-4.6484 4.6484-4.9492 13.102 0 17.699 5 4.6016 12.75 4.9492 17.699 0 10.852-10.852 21.75-21.75 32.602-32.602 17.301-17.301 34.648-34.648 51.949-51.949l11.898-11.898c4.6484-4.6484 4.9492-13.102 0-17.699-5.0469-4.5469-12.75-4.9492-17.699 0z" fill="#31455a"/>
 <path d="m336.7 216.6c10.852 10.852 21.75 21.75 32.602 32.602 17.301 17.301 34.648 34.648 51.949 51.949 3.9492 3.9492 7.9492 7.9492 11.898 11.898 4.6484 4.6484 13.102 4.9492 17.699 0 4.6016-5 4.9492-12.75 0-17.699l-32.602-32.602c-17.301-17.301-34.648-34.648-51.949-51.949l-11.898-11.898c-4.6484-4.6484-13.102-4.9492-17.699 0-4.5977 4.9961-4.9492 12.746 0 17.699z" fill="#31455a"/>
</svg>
