<?xml version="1.0" encoding="UTF-8"?>
<svg width="512pt" height="512pt" version="1.1" viewBox="0 0 512 512" xmlns="http://www.w3.org/2000/svg">
 <path d="m184.6 433.4h-81.902c-0.60156 0-1.1016-0.5-1.1016-1.1016l0.003906-352.6c0-0.60156 0.5-1.1016 1.1016-1.1016h81.898c0.60156 0 1.1016 0.5 1.1016 1.1016v352.6c-0.003906 0.59766-0.50391 1.0977-1.1016 1.0977z" fill="#31455a"/>
 <path d="m184.6 425.9h-71.801-7.3516-2c-1 0-1.1484-0.39844 0.64844 0.10156 1.1016 0.64844 2.1992 1.3008 3.3008 1.9492l-0.39844-0.39844c0.64844 1.1016 1.3008 2.1992 1.9492 3.3008 0.30078 1 0.10156 2 0.10156 0.80078v-1.8008-7.0508-25.602-38-46.148-50.801-51.051-47.852-40.25-29.102c0-4.5508 0.10156-9.1484 0-13.75 0-0.94922 0.35156-0.89844-0.10156 0.85156-0.64844 1.1016-1.3008 2.1992-1.9492 3.3008l0.39844-0.39844c-1.1016 0.64844-2.1992 1.3008-3.3008 1.9492-1.75 0.44922-1.75 0.10156-0.85156 0.10156h1.6016 5.9492 19.551 44.102 7.3516 2c1 0 1.1484 0.39844-0.64844-0.10156-1.1016-0.64844-2.1992-1.3008-3.3008-1.9492l0.39844 0.39844c-0.64844-1.1016-1.3008-2.1992-1.9492-3.3008-0.30078-1-0.10156-2-0.10156-0.80078v1.8008 7.0508 25.602 38 46.148 50.801 51.051 47.852 40.25 29.102c0 4.5508-0.10156 9.1484 0 13.75 0 0.94922-0.35156 0.89844 0.10156-0.85156 0.64844-1.1016 1.3008-2.1992 1.9492-3.3008l-0.39844 0.39844c1.1016-0.64844 2.1992-1.3008 3.3008-1.9492-0.19922 0.050781-0.35156 0.10156-0.55078 0.14844-3.8984 1.0508-6.3008 5.3516-5.25 9.25 1.1016 3.9492 5.3008 6.3008 9.25 5.25 5.8008-1.5508 6.6016-6.3984 6.6016-11.25v-9.8516-37-53.551-62.5-63.75-57.301-43.199-21.449-1.0508c-0.35156-4.8984-3.8008-8.3984-8.75-8.6016h-1.6992-21.398-55.199c-1.8984 0-3.8516-0.10156-5.75 0.35156-4.1016 1-6.25 4.8984-6.3516 8.8516-0.050782 2.1992 0 4.3984 0 6.5508v31.75 50.199 61 64.148 59.602 47.352 27.5c0 1.3008-0.10156 2.6016 0 3.8984 0.35156 4.8984 3.8008 8.3984 8.75 8.6016h1.6992 8.4492 58.449 13.148c3.8984 0 7.6992-3.4492 7.5-7.5-0.15234-4.0977-3.25-7.5508-7.4492-7.5508z" fill="#31455a"/>
 <path d="m409.3 433.4h-81.902c-0.60156 0-1.1016-0.5-1.1016-1.1016l0.003906-352.6c0-0.60156 0.5-1.1016 1.1016-1.1016h81.898c0.60156 0 1.1016 0.5 1.1016 1.1016v352.6c-0.003906 0.59766-0.50391 1.0977-1.1016 1.0977z" fill="#31455a"/>
 <path d="m409.3 425.9h-71.801-7.3516-2c-1 0-1.1484-0.39844 0.64844 0.10156 1.1016 0.64844 2.1992 1.3008 3.3008 1.9492-0.14844-0.14844-0.25-0.25-0.39844-0.39844 0.64844 1.1016 1.3008 2.1992 1.9492 3.3008 0.30078 1 0.10156 2 0.10156 0.80078v-1.8008-7.0508-25.602-38-46.148-50.801-51.051-47.852-40.25-29.102c0-4.5508 0.10156-9.1484 0-13.75 0-0.94922 0.35156-0.89844-0.10156 0.85156-0.64844 1.1016-1.3008 2.1992-1.9492 3.3008 0.14844-0.14844 0.25-0.25 0.39844-0.39844-1.1016 0.64844-2.1992 1.3008-3.3008 1.9492-1.75 0.44922-1.75 0.10156-0.85156 0.10156h1.6016 5.9492 19.551 44.102 7.3516 2c1 0 1.1484 0.39844-0.64844-0.10156-1.1016-0.64844-2.1992-1.3008-3.3008-1.9492l0.39844 0.39844c-0.64844-1.1016-1.3008-2.1992-1.9492-3.3008-0.30078-1-0.10156-2-0.10156-0.80078v1.8008 7.0508 25.602 38 46.148 50.801 51.051 47.852 40.25 29.102c0 4.5508-0.10156 9.1484 0 13.75 0 0.94922-0.35156 0.89844 0.10156-0.85156 0.64844-1.1016 1.3008-2.1992 1.9492-3.3008l-0.39844 0.39844c1.1016-0.64844 2.1992-1.3008 3.3008-1.9492-0.19922 0.050781-0.35156 0.10156-0.55078 0.14844-3.8984 1.0508-6.3008 5.3516-5.25 9.25 1.1016 3.9492 5.3008 6.3008 9.25 5.25 5.8008-1.5508 6.6016-6.3984 6.6016-11.25v-9.8516-37-53.551-62.5-63.75-57.301-43.199-21.449-1.0508c-0.35156-4.8984-3.8008-8.3984-8.75-8.6016h-1.6992-21.398-55.199c-1.8984 0-3.8516-0.10156-5.75 0.35156-4.1016 1-6.25 4.8984-6.3516 8.8516-0.050781 2.1992 0 4.3984 0 6.5508v31.75 50.199 61 64.148 59.602 47.352 27.5c0 1.3008-0.10156 2.6016 0 3.8984 0.35156 4.8984 3.8008 8.3984 8.75 8.6016h1.6992 8.4492 58.449 13.148c3.8984 0 7.6992-3.4492 7.5-7.5-0.14844-4.0977-3.25-7.5508-7.4492-7.5508z" fill="#31455a"/>
</svg>
