<?xml version="1.0" encoding="UTF-8"?>
<svg width="512pt" height="512pt" version="1.1" viewBox="0 0 512 512" xmlns="http://www.w3.org/2000/svg">
 <path d="m126.75 421.15v-330.3c0-9.75 11-15.449 18.949-9.8516l234.4 165.15c6.8008 4.8008 6.8008 14.898 0 19.699l-234.35 165.15c-8 5.6016-19-0.10156-19-9.8516z" fill="#31455a"/>
 <path d="m134.25 421.15v-17.301-44.898-61.852-68.25-64.051-49.25c0-7.9492-0.050781-15.949 0-23.898v-0.64844-0.10156-0.64844c0.050781-1.4492 0.050781-0.14844-0.050781 0.14844 0.14844-0.60156 0.30078-1.1484 0.5-1.75-0.5 1.5 0.25-0.25 0.60156-0.80078-0.14844 0.30078-1.0508 1.0508-0.10156 0.19922l0.80078-0.80078c0.89844-0.94922 0.050781 0-0.19922 0.14844 0.30078-0.14844 0.64844-0.39844 0.94922-0.60156 1-0.69922 0.050781-0.050781-0.25 0.050781 0.55078-0.19922 1.0508-0.35156 1.6016-0.5 1.25-0.39844 0 0-0.30078 0 0.35156 0 0.75 0 1.1484-0.050781 1.25-0.10156 0.10156-0.050781-0.25-0.10156 0.39844 0.050782 0.75 0.14844 1.1484 0.25 0.39844 0.10156 0.75 0.25 1.1484 0.35156-1.5-0.55078-0.19922-0.050781 0.14844 0.19922 0.25 0.19922 0.55078 0.35156 0.80078 0.55078 1.5508 1.0508 3.1016 2.1992 4.6484 3.25 10.102 7.1016 20.148 14.199 30.25 21.301 16.199 11.449 32.449 22.852 48.648 34.301 18.449 13 36.949 26 55.398 39.051 17.102 12.051 34.199 24.102 51.301 36.148 11.699 8.25 23.398 16.449 35.051 24.699 2.6992 1.8984 5.3984 3.8008 8.1016 5.6992 0.25 0.19922 0.5 0.35156 0.75 0.55078 0.64844 0.5-0.55078-0.64844 0 0.050781 0.25 0.35156 0.60156 0.60156 0.89844 0.89844 0.75 0.80078-0.55078-0.94922-0.050782 0 0.19922 0.35156 0.39844 0.75 0.60156 1.1016 0.44922 0.75 0-0.89844-0.10156-0.10156-0.050781 0.35156 0.30078 1.1016 0.35156 1.4492-0.050781-0.35156 0-1.5-0.10156-0.19922 0 0.39844 0 0.80078-0.050781 1.1992 0-1 0.10156-0.80078-0.10156 0.10156-0.050781 0.25-0.39844 1.4492-0.10156 0.55078 0.35156-1.1016-0.39844 0.75-0.39844 0.75-0.10156 0.25-0.80078 1.1484 0.10156 0-0.25 0.35156-0.60156 0.60156-0.85156 0.94922-0.64844 0.80078-0.10156 0.14844-0.050781 0.10156-5.6016 4.3516-11.648 8.1992-17.449 12.301-13.75 9.6992-27.551 19.398-41.301 29.102-17.898 12.602-35.801 25.25-53.699 37.852-18.25 12.852-36.449 25.699-54.699 38.5-14.75 10.398-29.449 20.75-44.199 31.148-7.3984 5.1992-14.801 10.449-22.25 15.648-0.19922 0.14844-0.44922 0.30078-0.64844 0.44922-0.050782 0.050781-0.10156 0.050781-0.14844 0.10156-0.19922 0.10156-2.1992 1.25-1.3008 0.85156 0.75-0.35156-1.3516 0.30078-1.6484 0.39844-0.89844 0.30078 1.6484 0.14844 0-0.050782-0.35156-0.050781-0.80078-0.050781-1.1484-0.050781 0.30078 0 1.6016 0.39844 0.30078 0-0.35156-0.10156-0.75-0.19922-1.1016-0.30078-0.55078-0.14844-0.89844-0.64844 0.25 0.10156-0.25-0.19922-0.69922-0.39844-1-0.55078-1.1016-0.5-0.14844-0.050781 0.14844 0.19922-0.30078-0.25-0.55078-0.5-0.85156-0.75-0.25-0.25-0.5-0.55078-0.75-0.85156 1.0508 1.0508 0.35156 0.55078 0.14844 0.14844-0.14844-0.35156-0.39844-0.69922-0.55078-1 0.75 1.3984 0.14844 0.35156 0-0.14844-0.050782-0.25-0.39844-1.5-0.19922-0.5 0.41016 1.207 0.10938-0.74219 0.10938-0.84375-0.10156-3.8984-3.3984-7.6992-7.5-7.5-4 0.19922-7.6016 3.3008-7.5 7.5 0.25 9.25 6.6484 17.648 16 19.199 5.1016 0.85156 10.199-0.10156 14.5-3.0508 2.1484-1.5 4.3008-3 6.4492-4.5508 11.199-7.8984 22.398-15.801 33.602-23.648 17-11.949 34-23.949 50.949-35.898 18.898-13.301 37.75-26.602 56.648-39.898 16.648-11.75 33.301-23.449 49.949-35.199 10.5-7.3984 21-14.801 31.5-22.199 1.6484-1.1484 3.3516-2.3516 5-3.5 7-5.0508 10.699-13.699 7.9492-22.199-1.5-4.6016-4.4492-7.9492-8.3008-10.699-6.9492-4.9492-13.949-9.8008-20.898-14.75-14.699-10.352-29.398-20.699-44.102-31.051-18.449-13-36.898-26-55.301-38.949-18.25-12.852-36.5-25.699-54.75-38.602-14-9.8516-27.949-19.699-41.949-29.551-5.6484-4-11.25-8.1484-17-12-7.5508-5.0508-17.5-3.8516-24.102 2.1016-4.1016 3.6484-6.0508 9.0508-6.1484 14.449-0.050782 2.1992 0 4.3984 0 6.6016v36.199 57.949 68.449 67.75 55.75 33 4.3984c0 3.8984 3.4492 7.6992 7.5 7.5 4.1055-0.30078 7.5039-3.3984 7.5039-7.6016z" fill="#31455a"/>
</svg>
