<?xml version="1.0" encoding="utf-8"?>
<!-- Generator: Adobe Illustrator 26.5.1, SVG Export Plug-In . SVG Version: 6.00 Build 0)  -->
<svg version="1.1" id="Layer_1" xmlns="http://www.w3.org/2000/svg" xmlns:xlink="http://www.w3.org/1999/xlink" x="0px" y="0px"
	 viewBox="0 0 512 512" style="enable-background:new 0 0 512 512;" xml:space="preserve">
<style type="text/css">
	.st0{fill:#31455A;}
</style>
<path class="st0" d="M385.2,421.1c0,9.8-11,15.5-19,9.9L131.8,265.8c-6.8-4.8-6.8-14.9,0-19.7L366.2,81c7.9-5.6,18.9,0.1,18.9,9.9
	L385.2,421.1L385.2,421.1z"/>
<path class="st0" d="M377.7,421.2c0,4.2,3.4,7.3,7.5,7.6c4.1,0.2,7.5-3.6,7.5-7.5v-4.4v-33v-55.8v-67.8v-68.4V134V97.8
	c0-2.2,0.1-4.4,0-6.6c-0.1-5.4-2-10.8-6.1-14.4c-6.6-6-16.6-7.2-24.1-2.1c-5.8,3.9-11.4,8-17,12c-14,9.9-27.9,19.7-41.9,29.6
	c-18.2,12.9-36.5,25.8-54.8,38.6c-18.4,12.9-36.9,25.9-55.3,38.9c-14.7,10.4-29.4,20.7-44.1,31.1c-6.9,4.9-13.9,9.8-20.9,14.8
	c-3.9,2.7-6.8,6.1-8.3,10.7c-2.7,8.5,0.9,17.1,7.9,22.2c1.6,1.1,3.4,2.4,5,3.5c10.5,7.4,21,14.8,31.5,22.2
	c16.6,11.8,33.3,23.4,49.9,35.2c18.9,13.3,37.8,26.6,56.6,39.9c16.9,11.9,33.9,23.9,50.9,35.9c11.2,7.8,22.4,15.7,33.6,23.6
	c2.1,1.6,4.3,3.1,6.4,4.6c4.3,2.9,9.4,3.9,14.5,3.1c9.4-1.6,15.8-9.9,16-19.2c0.1-4.2-3.5-7.3-7.5-7.5
	C381.1,413.5,377.8,417.3,377.7,421.2c0,0.1-0.3,2.1,0.1,0.8c0.2-1-0.1,0.2-0.2,0.5c-0.1,0.5-0.8,1.5,0,0.1c-0.2,0.3-0.4,0.6-0.6,1
	c-0.2,0.4-0.9,0.9,0.1-0.1c-0.2,0.3-0.5,0.6-0.8,0.9c-0.3,0.2-0.6,0.5-0.9,0.8c0.3-0.2,1.3-0.7,0.1-0.2c-0.3,0.2-0.8,0.4-1,0.6
	c1.1-0.8,0.8-0.2,0.2-0.1c-0.4,0.1-0.8,0.2-1.1,0.3c-1.3,0.4,0,0,0.3,0c-0.3,0-0.8,0-1.1,0.1c-1.6,0.2,0.9,0.4,0,0.1
	c-0.3-0.1-2.4-0.8-1.6-0.4c0.9,0.4-1.1-0.8-1.3-0.9c0-0.1-0.1-0.1-0.1-0.1c-0.2-0.1-0.4-0.3-0.6-0.4c-7.4-5.2-14.9-10.4-22.2-15.6
	c-14.8-10.4-29.4-20.8-44.2-31.1c-18.2-12.8-36.4-25.6-54.7-38.5c-17.9-12.6-35.8-25.2-53.7-37.9c-13.8-9.7-27.6-19.4-41.3-29.1
	c-5.8-4.1-11.8-7.9-17.4-12.3c0.1,0,0.6,0.7-0.1-0.1c-0.2-0.3-0.6-0.6-0.9-0.9c0.9,1.1,0.2,0.2,0.1,0c0,0-0.8-1.9-0.4-0.8
	c0.3,0.9-0.1-0.3-0.1-0.6c-0.2-0.9-0.1-1.1-0.1-0.1c-0.1-0.4-0.1-0.8-0.1-1.2c-0.1-1.3-0.1-0.2-0.1,0.2c0.1-0.3,0.4-1.1,0.4-1.4
	c-0.1-0.8-0.6,0.9-0.1,0.1c0.2-0.4,0.4-0.8,0.6-1.1c0.5-0.9-0.8,0.8-0.1,0c0.3-0.3,0.6-0.5,0.9-0.9c0.6-0.7-0.6,0.4,0-0.1
	c0.2-0.2,0.5-0.4,0.8-0.6c2.7-1.9,5.4-3.8,8.1-5.7c11.7-8.2,23.4-16.4,35.1-24.7c17.1-12,34.2-24.1,51.3-36.1
	c18.4-13.1,36.9-26.1,55.4-39.1c16.2-11.4,32.4-22.9,48.6-34.3c10.1-7.1,20.1-14.2,30.2-21.3c1.5-1.1,3.1-2.2,4.6-3.2
	c0.2-0.2,0.6-0.4,0.8-0.6c0.3-0.2,1.6-0.8,0.1-0.2c0.4-0.1,0.7-0.2,1.1-0.4c0.4-0.1,0.7-0.2,1.1-0.2c-0.4,0.1-1.5,0-0.2,0.1
	c0.4,0.1,0.8,0.1,1.1,0.1c-0.3,0-1.6-0.4-0.3,0c0.6,0.1,1.1,0.3,1.6,0.5c-0.3-0.1-1.2-0.8-0.2-0.1c0.3,0.2,0.6,0.5,0.9,0.6
	c-0.2-0.1-1.1-1.1-0.2-0.1l0.8,0.8c0.9,0.9,0,0.1-0.1-0.2c0.4,0.6,1.1,2.3,0.6,0.8c0.2,0.6,0.4,1.1,0.5,1.8
	c-0.1-0.3-0.1-1.6-0.1-0.1v0.6V91v0.6c0.1,7.9,0,15.9,0,23.9v49.2v64.1v68.2V359v44.9L377.7,421.2L377.7,421.2z"/>
</svg>
