<?xml version="1.0" encoding="UTF-8"?>
<svg width="512pt" height="512pt" version="1.1" viewBox="0 0 512 512" xmlns="http://www.w3.org/2000/svg">
 <path d="m214.15 265.55 88.648 62.449 139.25 98.102c7.75 5.4492 18.449-0.10156 18.449-9.5508l0.003906-321.1c0-9.5-10.699-15.051-18.449-9.5508l-139.25 98.051-88.652 62.5c-6.5977 4.6523-6.5977 14.449 0 19.102z" fill="#31455a"/>
 <path d="m210.35 272.05c11.148 7.8516 22.301 15.699 33.398 23.551 16.25 11.449 32.5 22.898 48.75 34.352 5.3516 3.8008 10.75 7.5508 16.102 11.352 14.949 10.5 29.852 21.051 44.801 31.551 17.852 12.551 35.648 25.102 53.5 37.699 10.199 7.1992 20.398 14.398 30.648 21.602 10.898 7.6484 27.148 2.1992 29.949-11.301 0.55078-2.75 0.5-5.4492 0.5-8.1992v-31.551-53.801-65.648-66.551-56.602-35.852c0-2.25 0.050781-4.5 0-6.75-0.10156-5-1.75-9.6484-5.1016-13.352-6.1484-6.8008-17-8.0508-24.602-2.9492-8.25 5.5-16.25 11.449-24.352 17.148-17.25 12.148-34.551 24.352-51.801 36.5-16.102 11.352-32.148 22.648-48.25 34-5.75 4.0508-11.551 8.1016-17.301 12.199-14.699 10.352-29.398 20.699-44.102 31.051-13.648 9.6016-27.301 19.199-40.949 28.852-3 2.1484-5.8008 4.4492-7.5508 7.8008-2.1484 4.1484-2.75 8.8984-1.75 13.449 1.0586 4.75 4.1562 8.5 8.1094 11.449 3.25 2.4492 8.3984 0.55078 10.25-2.6992 2.25-3.8516 0.55078-7.8516-2.6992-10.25 1.3984 1.0508-1.1992-1.5-0.050782 0-0.30078-0.44922-1.25-2.3984-0.69922-0.89844-0.19922-0.55078-0.60156-2.6016-0.39844-0.94922-0.050781-0.39844-0.050781-0.80078-0.050781-1.1992 0-0.80078 0.5-1.6992 0-0.39844 0.14844-0.35156 0.25-0.85156 0.30078-1.1484 0.10156-0.5 0.60156-0.94922-0.050781 0.10156 0.30078-0.5 1.6016-2.0508 0.60156-1.0508 0.35156-0.35156 1.3984-1.3516 0.44922-0.55078l0.050782-0.050781c1.1016-0.85156 2.3008-1.6016 3.4492-2.3984 6.1484-4.3516 12.352-8.6992 18.5-13.051 17-12 34.051-24 51.051-36 6.3008-4.4492 12.602-8.8516 18.898-13.301 12.199-8.6016 24.352-17.148 36.551-25.75l53.25-37.5c13.398-9.4492 26.801-18.898 40.199-28.352 2.5-1.75 4.9492-3.5508 7.6016-5.1484-1.3008 0.75 0.5 0 1.1016-0.19922-1.3008 0.44922-0.80078 0.050782-0.25 0.050782 0.30078 0 0.85156 0.050781 1.1484 0-1.25 0.14844-0.89844-0.19922-0.30078-0.050782 0.39844 0.10156 0.94922 0.35156 1.3984 0.39844 0.89844 0.050781-0.89844-0.64844-0.19922-0.10156 0.30078 0.25 0.85156 0.55078 1.25 0.75-1.1484-0.60156-0.55078-0.5-0.14844-0.10156 0.19922 0.25 0.55078 0.60156 0.80078 0.80078-0.89844-0.75-0.39844-0.64844-0.10156-0.14844 0.14844 0.30078 0.39844 0.75 0.60156 1-0.69922-0.89844-0.19922-0.75-0.050781-0.14844 0.10156 0.35156 0.19922 0.85156 0.30078 1.1992-0.5-1.25 0-0.19922 0 0.55078v1.25 24.75 48.801 62.852 66.148 59.449 42.5 11.648 2.9492 0.64844 0.10156c0 0.30078-0.050781 0.69922-0.050781 1 0 1 0.44922-0.94922-0.050782-0.14844-0.25 0.39844-0.30078 1-0.44922 1.4492 0.60156-1.6016-0.35156 0.35156-0.64844 0.80078 1-1.3984-0.39844 0.19922-0.80078 0.60156 1.25-1.1484-0.39844 0.050782-0.89844 0.39844 1.1484-0.75 0.75-0.25 0.19922-0.10156-0.55078 0.14844-1.1016 0.30078-1.6484 0.39844 1.6484-0.30078-0.19922-0.10156-0.89844-0.14844 1.6484 0.10156-0.25-0.14844-0.89844-0.39844 1.5 0.5-0.60156-0.44922-1.0508-0.75-0.75-0.5-1.4492-1-2.1484-1.5-4.3008-3.0508-8.6016-6.0508-12.898-9.1016-15.801-11.148-31.602-22.25-47.398-33.398-17.148-12.102-34.301-24.148-51.449-36.25-8.3984-5.9492-16.852-11.852-25.25-17.801-10.102-7.1016-20.199-14.25-30.352-21.352-16.449-11.602-32.898-23.199-49.352-34.75-3-2.1016-6.0508-4.25-9.0508-6.3516-3.3008-2.3516-8.3516-0.60156-10.25 2.6992-2.2617 3.6992-0.71094 7.8477 2.5898 10.199z" fill="#31455a"/>
 <path d="m56.5 265.55 227.9 160.55c7.75 5.4492 18.449-0.10156 18.449-9.5508v-88.5l-88.699-62.5c-6.6016-4.6484-6.6016-14.449 0-19.148l88.648-62.449v-88.5c0-9.5-10.699-15.051-18.449-9.5508l-227.85 160.55c-6.6484 4.6523-6.6484 14.449 0 19.102z" fill="#31455a"/>
 <path d="m52.699 272.05c6.3516 4.5 12.75 8.9492 19.102 13.449 15.551 10.949 31.102 21.898 46.602 32.852 19.75 13.898 39.5 27.801 59.25 41.75 18.801 13.25 37.648 26.5 56.449 39.801 12.801 9 25.551 18 38.352 27 2.6016 1.8008 5.1484 3.6484 7.75 5.4492 3.8516 2.6992 8.5508 3.8984 13.199 3.25 9.6992-1.3008 16.699-9.25 16.898-19.051 0.39844-17.699 0-35.449 0-53.148v-29.648c0-1.8516 0.10156-3.75 0-5.6016-0.19922-4.0508-2.8984-5.9492-5.75-8-16.148-11.352-32.25-22.75-48.398-34.102-8.8516-6.25-17.75-12.5-26.602-18.75-3.8516-2.6992-7.9492-5.25-11.648-8.1992 1.1016 0.89844 0-0.050781-0.19922-0.35156-0.75-0.94922 0.75 1.5-0.19922-0.19922-0.19922-0.35156-0.39844-0.75-0.60156-1.0508 0.69922 1.0508 0.19922 0.60156 0.050781 0.10156 0-0.050781-0.55078-1.9492-0.25-0.75 0.25 1 0-0.19922 0-0.5 0-0.5 0-1 0.050781-1.5-0.10156 1.3008 0.050782 0.39844 0.19922-0.35156 0.10156-0.5 0.60156-0.94922-0.050781 0.10156 0.19922-0.30078 0.39844-0.75 0.60156-1.0508 0.94922-1.6992-0.55078 0.75 0.19922-0.19922 0.19922-0.30078 1.3516-1.1992 0.19922-0.35156 0.050781-0.050781 0.14844-0.10156 0.19922-0.14844 1.5508-1.1484 3.1484-2.1992 4.6992-3.3008 7.5508-5.3516 15.102-10.648 22.699-16 17.949-12.648 35.949-25.301 53.898-38 2.0508-1.4492 4.1484-2.8984 6.1992-4.3984 0.30078-0.19922 0.64844-0.44922 0.94922-0.64844 2.5-1.8516 3.6484-4.1016 3.6992-7.1016 0.14844-7.25 0-14.551 0-21.801v-62.949c0-2.9492 0.10156-5.9492-0.85156-8.8516-3.1992-9.6484-13.75-15.801-23.699-12.75-3.6016 1.1016-6.3516 3.25-9.3008 5.3516-11.199 7.8984-22.352 15.75-33.551 23.648-18.051 12.699-36.102 25.398-54.102 38.102-19.949 14.051-39.898 28.102-59.852 42.199-16.75 11.801-33.449 23.602-50.199 35.352-8.3984 5.9492-16.852 11.852-25.25 17.801-2.3984 1.6992-4.5 3.5-6.1992 5.9492-2.9492 4.1992-3.6992 9.5-2.8516 14.449 0.96094 5.0977 4.2109 9.0469 8.3086 12.148 3.25 2.3984 8.3984 0.55078 10.25-2.6992 2.25-3.8516 0.55078-7.8516-2.6992-10.25 1.3516 1-0.89844-1.0508-0.25-0.30078 0.55078 0.64844-0.10156-0.10156-0.14844-0.25-0.19922-0.35156-0.39844-0.75-0.60156-1.0508 0.10156 0.14844 0.30078 1.1484 0.14844 0.39844-0.050782-0.35156-0.14844-0.85156-0.35156-1.1484-0.35156-0.60156 0 0.25 0 0.5-0.050781-0.5-0.050781-1-0.050781-1.5 0-0.30078 0.050781-0.60156 0.050781-0.89844 0 0.25-0.35156 1.1016 0 0.5 0.14844-0.30078 0.30078-0.80078 0.35156-1.1484 0.14844-0.75-0.050782 0.25-0.14844 0.39844 0.19922-0.30078 0.39844-0.75 0.60156-1.0508 0.050782-0.14844 0.69922-0.89844 0.14844-0.25-0.64844 0.75 1.6016-1.3516 0.25-0.30078 0.25-0.19922 0.55078-0.39844 0.80078-0.55078 2-1.3984 3.9492-2.8008 5.8984-4.1484 8.6484-6.1016 17.301-12.199 25.949-18.301 13.102-9.25 26.199-18.449 39.301-27.699 15.199-10.699 30.449-21.449 45.648-32.148 14.949-10.551 29.949-21.102 44.898-31.648 12.551-8.8516 25.148-17.699 37.699-26.551 7.8008-5.5 15.602-11 23.352-16.449 1.3984-0.94922 2.75-1.9492 4.1484-2.8984 0.60156-0.39844 1.1992-0.69922 1.8008-1.1016-1.1992 0.69922 0.30078 0.10156 0.80078-0.14844 0.64844-0.35156-0.30078 0.050781-0.55078 0.050781 0.30078 0 0.60156-0.050781 0.89844-0.050781 1.8516-0.050781-0.64844-0.35156 0.60156 0 0.35156 0.10156 0.75 0.19922 1.1016 0.30078 0.85156 0.19922 0.30078 0.19922-0.19922-0.10156 0.30078 0.19922 1.8984 1.1484 1.1992 0.60156-0.69922-0.5 0.64844 0.69922 0.94922 0.94922-0.10156-0.10156-0.64844-1.1016-0.30078-0.39844 0.14844 0.30078 0.35156 0.75 0.60156 1 0.44922 0.44922-0.050781-0.19922-0.14844-0.44922 0.14844 0.44922 0.19922 1.0508 0.44922 1.4492 0.35156 0.55078 0.050781-0.14844 0-0.44922 0.050781 0.44922 0.050781 0.85156 0.050781 1.3008v0.050781 0.35156c0.10156 13.199 0 26.398 0 39.602v45.75 2.75c1.25-2.1484 2.5-4.3008 3.6992-6.5-11.148 7.8516-22.301 15.699-33.398 23.551-16.25 11.449-32.5 22.898-48.75 34.352-5.6484 4-11.699 7.5-14.148 14.5-2.9492 8.3984 0.69922 17.148 7.6992 22.199 1.0508 0.75 2.1484 1.5 3.1992 2.25 15.102 10.648 30.25 21.301 45.352 31.949 13.102 9.25 26.051 18.801 39.352 27.75 0.25 0.14844 0.44922 0.35156 0.69922 0.5-1.25-2.1484-2.5-4.3008-3.6992-6.5v33.398 48.699 5.5508 0.89844 0.64844c-0.050781 1.5-0.050781 0.14844 0-0.10156-0.10156 0.30078-0.14844 0.60156-0.25 0.89844-0.10156 0.30078-0.19922 0.60156-0.30078 0.85156 0.60156-1.5 0.19922-0.44922 0-0.19922-0.14844 0.19922-0.35156 0.5-0.44922 0.75-0.35156 0.64844 1.0508-0.89844-0.10156 0.050782-0.60156 0.5-1.3008 0.80078-0.25 0.30078-0.35156 0.14844-1.9492 1.1016-1.1016 0.69922 0.89844-0.39844-1 0.25-1.3008 0.35156-0.25 0.050782-1.0508 0.050782-0.14844 0.050782 1.0508 0-0.25-0.050782-0.44922-0.050782-1.8516-0.050781 0.60156 0.35156-0.64844-0.050781-0.25-0.10156-0.60156-0.19922-0.85156-0.25-0.89844-0.10156 0.80078 0.64844 0.10156 0.050781-0.39844-0.35156-0.94922-0.55078-1.3984-0.85156-0.35156-0.19922-0.64844-0.44922-1-0.69922-5.6016-3.9492-11.199-7.8984-16.801-11.852-10.852-7.6484-21.75-15.301-32.602-22.949-14-9.8516-28-19.75-42-29.602-15-10.602-30.051-21.148-45.051-31.75-13.898-9.8008-27.801-19.602-41.75-29.398-10.699-7.5508-21.398-15.102-32.148-22.648-5.3008-3.6992-10.5-7.6016-15.852-11.148-0.25-0.14844-0.44922-0.35156-0.69922-0.5-3.3008-2.3516-8.3516-0.60156-10.25 2.6992-2.1016 3.5898-0.50391 7.7383 2.7969 10.09z" fill="#31455a"/>
</svg>
