<?xml version="1.0" encoding="UTF-8"?>
<svg width="512pt" height="512pt" version="1.1" viewBox="0 0 512 512" xmlns="http://www.w3.org/2000/svg">
 <path d="m326.66 278.02c0 39.023-31.633 70.656-70.656 70.656s-70.656-31.633-70.656-70.656 31.633-70.656 70.656-70.656 70.656 31.633 70.656 70.656" fill="#31455a"/>
 <path d="m432.13 101.89h-70.656l-39.426-44.031h-132.09l-39.426 44.031h-70.656c-24.062 0-44.031 19.969-44.031 44.031v264.19c0 24.062 19.969 44.031 44.031 44.031h352.26c24.062 0 44.031-19.969 44.031-44.031v-264.19c0-24.066-19.969-44.035-44.031-44.035zm-176.13 286.21c-61.441 0-110.08-48.641-110.08-110.08 0-61.445 48.637-110.08 110.08-110.08s110.08 48.641 110.08 110.08c0 61.441-48.637 110.08-110.08 110.08zm153.6-202.24c-8.7031 0-15.359-6.6562-15.359-15.359s6.6562-15.359 15.359-15.359c8.7031 0 15.359 6.6562 15.359 15.359s-6.6562 15.359-15.359 15.359z" fill="#31455a"/>
</svg>
